<svg width="432" height="332" viewBox="0 0 432 332" fill="none" xmlns="http://www.w3.org/2000/svg">
<path d="M51.5443 38.504L163.5 13.625L275.455 38.504C281.69 39.8894 286.125 45.4185 286.125 51.8046V187.874C286.125 215.207 272.465 240.732 249.722 255.894L163.5 313.375L77.2783 255.894C54.5356 240.732 40.875 215.207 40.875 187.874V51.8046C40.875 45.4185 45.3103 39.8894 51.5443 38.504ZM163.5 149.875C182.312 149.875 197.562 134.625 197.562 115.812C197.562 97.0003 182.312 81.75 163.5 81.75C144.688 81.75 129.438 97.0003 129.438 115.812C129.438 134.625 144.688 149.875 163.5 149.875ZM102.562 218H224.438C221.049 187.344 195.06 163.5 163.5 163.5C131.941 163.5 105.951 187.344 102.562 218Z" fill="#2AAEED"/>
<circle cx="324" cy="275" r="38" transform="rotate(10 324 275)" fill="#2AAEED"/>
<g clip-path="url(#clip0_1228_105)">
<path d="M329.679 251.758L345.155 294.279C345.604 295.512 344.968 296.875 343.736 297.323C343.344 297.466 342.921 297.503 342.511 297.43L297.948 289.573C296.657 289.345 295.794 288.113 296.022 286.821C296.094 286.411 296.274 286.027 296.541 285.707L325.628 251.044C326.471 250.039 327.969 249.908 328.973 250.751C329.293 251.019 329.536 251.366 329.679 251.758ZM319.953 281.395L319.128 286.072L323.806 286.897L324.631 282.219L319.953 281.395ZM322.84 265.022L320.778 276.717L325.455 277.542L327.518 265.847L322.84 265.022Z" fill="#06283D"/>
</g>
<circle cx="377.512" cy="160.76" r="35" transform="rotate(-12 377.512 160.76)" fill="#2AAEED"/>
<g clip-path="url(#clip1_1228_105)">
<path d="M353.657 148.768C353.167 145.743 355.228 142.885 358.252 142.395L371.963 140.174L373.739 151.143C373.985 152.659 375.409 153.686 376.925 153.44L387.894 151.664L388.546 155.691L381.109 160.158C379.402 161.182 378.497 163.14 378.815 165.103C379.6 169.953 382.489 177.522 389.778 181.644C389.073 182.18 388.23 182.563 387.296 182.714L365.359 186.268C362.334 186.758 359.477 184.697 358.987 181.672L353.657 148.768ZM387.449 148.922L376.481 150.698L374.705 139.73L387.449 148.922ZM392.156 156.751C392.613 156.474 393.161 156.386 393.681 156.504L404.63 158.951C405.461 159.142 406.098 159.812 406.234 160.652C407.112 166.076 406.357 175.476 397.656 180.878C397.185 181.174 396.611 181.267 396.071 181.135C386.118 178.755 382.434 170.074 381.555 164.65C381.419 163.81 381.811 162.973 382.54 162.529L392.156 156.751ZM402.291 162.698L393.586 160.749L396.194 176.85C401.58 173.075 402.661 167.096 402.291 162.698Z" fill="#06283D"/>
</g>
<circle cx="336.456" cy="39.7286" r="35" transform="rotate(6.96599 336.456 39.7286)" fill="#2AAEED"/>
<g clip-path="url(#clip2_1228_105)">
<path d="M359.665 23.6481L353.558 60.682C353.376 61.7848 352.307 62.5699 351.18 62.384L318.263 56.9554C317.136 56.7695 316.372 55.706 316.558 54.5799L322.665 17.546C322.847 16.4432 323.916 15.6581 325.043 15.8441L357.96 21.2726C359.087 21.4586 359.851 22.5222 359.665 23.6481ZM330.546 20.9745L327.495 39.4746L335.367 36.55L341.884 41.8476L344.935 23.3475L330.546 20.9745Z" fill="#06283D"/>
</g>
<defs>
<clipPath id="clip0_1228_105">
<rect width="57" height="57" fill="white" transform="translate(300.823 239.435) rotate(10)"/>
</clipPath>
<clipPath id="clip1_1228_105">
<rect width="50" height="44.4444" fill="white" transform="translate(352.768 143.284) rotate(-9.2014)"/>
</clipPath>
<clipPath id="clip2_1228_105">
<rect width="50" height="50" fill="white" transform="translate(317.513 10.3792) rotate(9.36491)"/>
</clipPath>
</defs>
</svg>
