<svg width="74" height="68" viewBox="0 0 74 68" fill="none" xmlns="http://www.w3.org/2000/svg">
<path d="M63.6666 0.666626C69.1896 0.666626 73.6666 5.14379 73.6666 10.6666V17.3333H66.9999V57.3333C66.9999 62.8563 62.5229 67.3333 56.9999 67.3333H10.3333C4.81042 67.3333 0.333252 62.8563 0.333252 57.3333V50.6666H53.6666V57.3333C53.6666 59.0426 54.9533 60.4516 56.6113 60.6443L56.9999 60.6666C58.7093 60.6666 60.1183 59.38 60.3109 57.722L60.3333 57.3333V7.33329H16.9999C15.2905 7.33329 13.8816 8.62009 13.689 10.2779L13.6666 10.6666V44H6.99992V10.6666C6.99992 5.14379 11.4771 0.666626 16.9999 0.666626H63.6666Z" fill="#06283D"/>
</svg>
