<svg width="55" height="43" viewBox="0 0 55 43" fill="none" xmlns="http://www.w3.org/2000/svg">
<path d="M5.15625 0.875C2.30957 0.875 0 3.18457 0 6.03125C0 7.65332 0.762695 9.17871 2.0625 10.1562L25.4375 27.6875C26.6621 28.6006 28.3379 28.6006 29.5625 27.6875L52.9375 10.1562C54.2373 9.17871 55 7.65332 55 6.03125C55 3.18457 52.6904 0.875 49.8438 0.875H5.15625ZM0 12.9062V35.25C0 39.042 3.08301 42.125 6.875 42.125H48.125C51.917 42.125 55 39.042 55 35.25V12.9062L31.625 30.4375C29.1758 32.2744 25.8242 32.2744 23.375 30.4375L0 12.9062Z" fill="#2AAEED"/>
</svg>
