<svg width="28" height="29" viewBox="0 0 28 29" fill="none" xmlns="http://www.w3.org/2000/svg">
<path d="M14.0063 7.81251C10.0313 7.81251 6.82505 11.0188 6.82505 14.9938C6.82505 18.9688 10.0313 22.175 14.0063 22.175C17.9813 22.175 21.1875 18.9688 21.1875 14.9938C21.1875 11.0188 17.9813 7.81251 14.0063 7.81251ZM14.0063 19.6625C11.4375 19.6625 9.33755 17.5688 9.33755 14.9938C9.33755 12.4188 11.4313 10.325 14.0063 10.325C16.5813 10.325 18.675 12.4188 18.675 14.9938C18.675 17.5688 16.575 19.6625 14.0063 19.6625ZM23.1563 7.51876C23.1563 8.45001 22.4063 9.19376 21.4813 9.19376C20.5501 9.19376 19.8063 8.44376 19.8063 7.51876C19.8063 6.59376 20.5563 5.84376 21.4813 5.84376C22.4063 5.84376 23.1563 6.59376 23.1563 7.51876ZM27.9125 9.21876C27.8063 6.97501 27.2938 4.98751 25.65 3.35001C24.0125 1.71251 22.025 1.20001 19.7813 1.08751C17.4688 0.956262 10.5375 0.956262 8.22505 1.08751C5.98755 1.19376 4.00005 1.70626 2.3563 3.34376C0.712549 4.98126 0.206299 6.96876 0.0937988 9.21251C-0.0374512 11.525 -0.0374512 18.4563 0.0937988 20.7688C0.200049 23.0125 0.712549 25 2.3563 26.6375C4.00005 28.275 5.9813 28.7875 8.22505 28.9C10.5375 29.0313 17.4688 29.0313 19.7813 28.9C22.025 28.7938 24.0125 28.2813 25.65 26.6375C27.2875 25 27.8001 23.0125 27.9125 20.7688C28.0438 18.4563 28.0438 11.5313 27.9125 9.21876ZM24.925 23.25C24.4375 24.475 23.4938 25.4188 22.2626 25.9125C20.4188 26.6438 16.0438 26.475 14.0063 26.475C11.9688 26.475 7.58755 26.6375 5.75005 25.9125C4.52505 25.425 3.5813 24.4813 3.08755 23.25C2.3563 21.4063 2.52505 17.0313 2.52505 14.9938C2.52505 12.9563 2.36255 8.57501 3.08755 6.73751C3.57505 5.51251 4.5188 4.56876 5.75005 4.07501C7.5938 3.34376 11.9688 3.51251 14.0063 3.51251C16.0438 3.51251 20.4251 3.35001 22.2626 4.07501C23.4876 4.56251 24.4313 5.50626 24.925 6.73751C25.6563 8.58126 25.4875 12.9563 25.4875 14.9938C25.4875 17.0313 25.6563 21.4125 24.925 23.25Z" fill="#2AAEED"/>
</svg>
