<svg width="44" height="54" viewBox="0 0 44 54" fill="none" xmlns="http://www.w3.org/2000/svg">
<path d="M22.3059 54C26.5239 54 43.261 35.013 43.261 22.287C43.261 10.104 33.7449 0 22.3059 0C10.2549 0 0.741944 10.098 0.741944 22.287C0.738944 35.01 17.4759 54 22.3059 54ZM18.9369 8.655C20.0585 8.37587 21.2102 8.23582 22.3659 8.238C29.1159 8.238 34.924 13.977 34.924 21.432C34.924 28.146 29.1159 33.885 22.3359 33.885C14.8089 33.885 9.00395 28.146 9.00395 21.432C9.00395 18.291 10.0179 15.492 11.7699 13.263V13.329C11.7699 16.131 14.0349 18.357 16.8339 18.357C19.6329 18.363 21.9999 16.065 21.9999 13.266C21.9971 12.2812 21.7057 11.3188 21.1619 10.4977C20.6181 9.67664 19.8456 9.03289 18.9399 8.646L18.9369 8.655Z" fill="#2AAEED"/>
</svg>
