<svg width="55" height="55" viewBox="0 0 55 55" fill="none" xmlns="http://www.w3.org/2000/svg">
<path d="M30.0781 -4.02541e-06C43.8389 -4.02541e-06 55 11.1611 55 24.9219C55 26.3506 53.8506 27.5 52.4219 27.5C50.9932 27.5 49.8438 26.3506 49.8438 24.9219C49.8438 14.0078 40.9922 5.15625 30.0781 5.15625C28.6494 5.15625 27.5 4.00683 27.5 2.57812C27.5 1.14941 28.6494 -4.02541e-06 30.0781 -4.02541e-06ZM30.9375 20.625C31.8492 20.625 32.7235 20.9872 33.3682 21.6318C34.0128 22.2765 34.375 23.1508 34.375 24.0625C34.375 24.9742 34.0128 25.8485 33.3682 26.4932C32.7235 27.1378 31.8492 27.5 30.9375 27.5C30.0258 27.5 29.1515 27.1378 28.5068 26.4932C27.8622 25.8485 27.5 24.9742 27.5 24.0625C27.5 23.1508 27.8622 22.2765 28.5068 21.6318C29.1515 20.9872 30.0258 20.625 30.9375 20.625ZM27.5 12.8906C27.5 11.4619 28.6494 10.3125 30.0781 10.3125C38.1455 10.3125 44.6875 16.8545 44.6875 24.9219C44.6875 26.3506 43.5381 27.5 42.1094 27.5C40.6807 27.5 39.5312 26.3506 39.5312 24.9219C39.5312 19.7012 35.2988 15.4687 30.0781 15.4687C28.6494 15.4687 27.5 14.3193 27.5 12.8906ZM12.6221 0.150387C14.7061 -0.418949 16.8867 0.644527 17.7139 2.64257L22.0107 12.9551C22.7412 14.706 22.2363 16.7363 20.7646 17.9287L15.4688 22.2686C19.0459 29.8311 25.1689 35.9541 32.7314 39.5312L37.0605 34.2353C38.2637 32.7637 40.2832 32.2588 42.0342 32.9893L52.3467 37.2861C54.3447 38.1133 55.4082 40.2939 54.8389 42.3779L52.2607 51.8311C51.7559 53.7002 50.0586 55 48.125 55C21.5488 55 0 33.4512 0 6.875C0 4.9414 1.2998 3.24414 3.16895 2.72851L12.6221 0.150387Z" fill="#2AAEED"/>
</svg>
