<svg width="50" height="54" viewBox="0 0 50 54" fill="none" xmlns="http://www.w3.org/2000/svg">
<path d="M24.9999 0C25.479 0 25.9582 0.104167 26.3957 0.302083L46.0103 8.62499C48.3019 9.59374 50.0102 11.8542 49.9998 14.5833C49.9477 24.9166 45.6978 43.8229 27.7395 52.4166C25.9999 53.2499 23.979 53.2499 22.2395 52.4166C4.302 43.8229 0.0520085 24.9166 -7.46903e-05 14.5833C-0.0104913 11.8542 1.69784 9.59374 3.9895 8.62499L23.6145 0.302083C24.0415 0.104167 24.5207 0 24.9999 0ZM24.9999 6.95833V46.3333C39.3749 39.375 43.2394 23.9687 43.3332 14.7291L24.9999 6.95833Z" fill="#2F9BCF"/>
</svg>
